<svg width="1500" height="500" viewBox="0 0 1500 500" fill="none" xmlns="http://www.w3.org/2000/svg">
<g clip-path="url(#clip0_2_2)">
<rect width="1500" height="500" fill="white"/>
<g filter="url(#filter0_f_2_2)">
<ellipse cx="112.5" cy="250" rx="498.5" ry="487" fill="#F7F04F"/>
</g>
<ellipse cx="683.5" cy="236" rx="498.5" ry="487" fill="#F6F04F" fill-opacity="0.17"/>
<g filter="url(#filter1_f_2_2)">
<ellipse cx="1412.5" cy="259" rx="498.5" ry="487" fill="#31E1EC"/>
</g>
<path d="M78.668 428.703C78.3398 429.172 77.9883 429.617 77.6133 430.039C77.2617 430.438 76.8164 430.754 76.2773 430.988C75.9961 432.605 75.7617 434.234 75.5742 435.875C75.4102 437.516 75.2227 439.156 75.0117 440.797C74.8242 442.438 74.6016 444.078 74.3438 445.719C74.1094 447.336 73.7812 448.941 73.3594 450.535L73.3945 450.957C73.4414 451.426 73.3828 451.871 73.2188 452.293C73.0547 452.715 72.9844 453.172 73.0078 453.664C72.6797 454.484 72.3984 455.398 72.1641 456.406C71.9297 457.391 71.7891 458.328 71.7422 459.219C71.5078 459.617 71.3086 460.051 71.1445 460.52C71.0039 460.988 70.8516 461.469 70.6875 461.961C70.5469 462.43 70.3828 462.887 70.1953 463.332C70.0078 463.754 69.7617 464.141 69.457 464.492C69.3867 465.031 69.2461 465.535 69.0352 466.004C68.8477 466.496 68.625 466.977 68.3672 467.445C68.1328 467.914 67.8984 468.371 67.6641 468.816C67.4531 469.285 67.3008 469.777 67.207 470.293C66.8086 470.902 66.4102 471.488 66.0117 472.051C65.6133 472.637 65.25 473.246 64.9219 473.879C64.6172 474.02 64.3477 474.172 64.1133 474.336C63.9023 474.523 63.6914 474.688 63.4805 474.828C63.2695 474.992 63.0234 475.133 62.7422 475.25C62.4844 475.367 62.168 475.426 61.793 475.426C61.6992 475.426 61.6055 475.414 61.5117 475.391C61.4414 475.391 61.3594 475.391 61.2656 475.391C60.9375 475.133 60.6094 474.875 60.2812 474.617C59.9531 474.383 59.6016 474.172 59.2266 473.984C59.2266 473.844 59.2031 473.727 59.1562 473.633C59.1328 473.539 59.1094 473.445 59.0859 473.352C59.0625 473.258 59.0508 473.164 59.0508 473.07C59.0508 472.977 59.0742 472.859 59.1211 472.719C58.9102 472.578 58.6641 472.32 58.3828 471.945C58.125 471.594 57.9961 471.289 57.9961 471.031C57.9961 470.797 58.0781 470.68 58.2422 470.68C58.1953 470.445 58.1133 470.211 57.9961 469.977C57.9023 469.766 57.8555 469.543 57.8555 469.309C57.8555 469.145 57.9023 468.969 57.9961 468.781C57.7383 468.172 57.5039 467.539 57.293 466.883C57.082 466.25 56.9414 465.594 56.8711 464.914C56.6367 464.609 56.4492 464.258 56.3086 463.859C56.1914 463.438 56.0977 463.004 56.0273 462.559C55.957 462.113 55.8984 461.68 55.8516 461.258C55.8047 460.812 55.7461 460.402 55.6758 460.027C55.6523 459.887 55.5938 459.664 55.5 459.359C55.4062 459.031 55.3594 458.809 55.3594 458.691C55.3594 458.551 55.3828 458.445 55.4297 458.375C55.5 458.305 55.5586 458.211 55.6055 458.094C55.3242 456.969 55.0898 455.832 54.9023 454.684C54.7383 453.535 54.5742 452.387 54.4102 451.238C54.2695 450.09 54.0938 448.953 53.8828 447.828C53.6953 446.68 53.4258 445.555 53.0742 444.453V444.137C53.0742 443.387 52.7812 442.789 52.1953 442.344C52.3125 441.992 52.3711 441.699 52.3711 441.465C52.3711 441.16 52.3242 440.867 52.2305 440.586C52.1602 440.305 52.0781 440.023 51.9844 439.742C51.8906 439.461 51.8203 439.18 51.7734 438.898C51.75 438.617 51.7734 438.336 51.8438 438.055C51.5859 437.773 51.375 437.469 51.2109 437.141C51.0469 436.812 50.8359 436.531 50.5781 436.297L50.543 436.086C50.543 435.969 50.5781 435.863 50.6484 435.77C50.6953 435.676 50.7188 435.57 50.7188 435.453C50.7188 435.289 50.6836 435.148 50.6133 435.031C50.5195 434.914 50.4258 434.809 50.332 434.715C50.2148 434.621 50.1211 434.527 50.0508 434.434C49.957 434.34 49.9102 434.234 49.9102 434.117C49.9102 433.836 50.0039 433.613 50.1914 433.449C50.3789 433.285 50.5898 433.145 50.8242 433.027C51.0586 432.887 51.2812 432.746 51.4922 432.605C51.7266 432.465 51.8789 432.266 51.9492 432.008C52.1367 432.055 52.3242 432.09 52.5117 432.113C52.6992 432.113 52.8867 432.16 53.0742 432.254C53.0977 432.23 53.1094 432.195 53.1094 432.148C53.1094 432.078 52.9922 432.02 52.7578 431.973C52.5469 431.902 52.4062 431.82 52.3359 431.727C52.5234 431.68 52.6641 431.656 52.7578 431.656C53.2266 431.656 53.6719 431.773 54.0938 432.008C54.5391 432.242 54.9609 432.488 55.3594 432.746C55.4062 432.957 55.418 433.18 55.3945 433.414C55.3711 433.625 55.4414 433.824 55.6055 434.012C55.582 434.129 55.5703 434.234 55.5703 434.328C55.5938 434.422 55.6055 434.516 55.6055 434.609C55.6055 434.727 55.582 434.832 55.5352 434.926C55.5117 434.996 55.4531 435.031 55.3594 435.031C55.5234 435.312 55.6289 435.652 55.6758 436.051C55.7461 436.449 55.8047 436.859 55.8516 437.281C55.9219 437.703 56.0039 438.113 56.0977 438.512C56.1914 438.91 56.3672 439.262 56.625 439.566C56.5781 439.707 56.543 439.848 56.5195 439.988C56.5195 440.129 56.5195 440.281 56.5195 440.445C56.5195 441.195 56.6133 441.934 56.8008 442.66C56.9883 443.387 57.082 444.125 57.082 444.875C57.082 445.32 57.0117 445.73 56.8711 446.105C56.8711 446.316 56.9414 446.492 57.082 446.633C57.2227 446.75 57.3164 446.914 57.3633 447.125C57.2461 447.406 57.1875 447.676 57.1875 447.934C57.1875 448.473 57.293 448.988 57.5039 449.48C57.7148 449.949 57.8203 450.441 57.8203 450.957C57.8203 451.121 57.7969 451.273 57.75 451.414C57.7031 451.555 57.6562 451.684 57.6094 451.801C57.8203 452.012 57.9258 452.281 57.9258 452.609C57.9492 452.938 58.0547 453.207 58.2422 453.418C58.2188 453.535 58.1953 453.652 58.1719 453.77C58.1719 453.887 58.1133 453.98 57.9961 454.051C58.1133 454.215 58.1719 454.438 58.1719 454.719C58.1953 454.977 58.3008 455.129 58.4883 455.176C58.4414 455.293 58.4062 455.398 58.3828 455.492C58.3594 455.586 58.3477 455.691 58.3477 455.809C58.3477 456.066 58.3828 456.301 58.4531 456.512L58.6641 457.145C58.7344 457.355 58.7812 457.578 58.8047 457.812C58.8516 458.047 58.8281 458.305 58.7344 458.586C58.8281 458.727 58.8984 458.891 58.9453 459.078C59.0156 459.266 59.0742 459.465 59.1211 459.676C59.168 459.863 59.2383 460.039 59.332 460.203C59.4258 460.344 59.5664 460.438 59.7539 460.484C59.7773 460.625 59.7188 460.695 59.5781 460.695C59.4609 460.695 59.4023 460.754 59.4023 460.871C59.4023 461.059 59.4727 461.293 59.6133 461.574C59.7539 461.832 59.8828 462.02 60 462.137C59.9766 462.23 59.9648 462.324 59.9648 462.418V462.734C59.9648 463.062 60.0117 463.402 60.1055 463.754C60.1992 464.082 60.2812 464.41 60.3516 464.738C60.4453 465.09 60.5156 465.43 60.5625 465.758C60.6094 466.086 60.5859 466.391 60.4922 466.672C60.6797 467 60.8438 467.352 60.9844 467.727C61.125 468.102 61.3477 468.418 61.6523 468.676C61.6523 469.074 61.7344 469.449 61.8984 469.801C62.0625 470.176 62.2734 470.527 62.5312 470.855C62.7656 470.855 62.9414 470.773 63.0586 470.609C63.1758 470.469 63.2695 470.305 63.3398 470.117C63.4102 469.93 63.4922 469.754 63.5859 469.59C63.6797 469.426 63.832 469.332 64.043 469.309C64.0664 469.074 64.125 468.875 64.2188 468.711C64.3359 468.57 64.4414 468.418 64.5352 468.254C64.6523 468.09 64.7461 467.914 64.8164 467.727C64.9102 467.539 64.9453 467.305 64.9219 467.023L65.3086 466.918C65.4258 466.285 65.6016 465.711 65.8359 465.195C66.0938 464.703 66.375 464.188 66.6797 463.648V463.473C66.6797 463.238 66.7148 463.039 66.7852 462.875C66.8555 462.711 66.8672 462.5 66.8203 462.242C66.9844 462.195 67.1016 462.102 67.1719 461.961C67.2422 461.82 67.3008 461.68 67.3477 461.539C67.3945 461.375 67.4414 461.223 67.4883 461.082C67.5586 460.918 67.6641 460.801 67.8047 460.73V460.449C67.7812 460.238 67.793 460.039 67.8398 459.852C67.9102 459.641 67.8984 459.43 67.8047 459.219C67.9922 459.148 68.1328 459.031 68.2266 458.867C68.3203 458.703 68.3906 458.527 68.4375 458.34C68.5078 458.152 68.543 457.953 68.543 457.742C68.5664 457.531 68.5781 457.344 68.5781 457.18C68.7422 456.969 68.8594 456.723 68.9297 456.441C69 456.137 69.0586 455.832 69.1055 455.527C69.1523 455.223 69.2109 454.93 69.2812 454.648C69.375 454.367 69.5156 454.121 69.7031 453.91C69.6562 453.793 69.6328 453.688 69.6328 453.594V453.277C69.6328 452.832 69.7031 452.434 69.8438 452.082C69.9844 451.707 70.1133 451.309 70.2305 450.887C70.5352 449.832 70.7461 448.754 70.8633 447.652C71.0039 446.527 71.2031 445.426 71.4609 444.348C71.4844 444.23 71.5312 444.043 71.6016 443.785C71.6719 443.527 71.7422 443.27 71.8125 443.012C71.8828 442.73 71.9414 442.484 71.9883 442.273C72.0586 442.039 72.0938 441.887 72.0938 441.816C72.0938 441.629 72.0469 441.5 71.9531 441.43C71.8828 441.359 71.8477 441.242 71.8477 441.078C71.9883 440.867 72.082 440.598 72.1289 440.27C72.1758 439.941 72.2109 439.602 72.2344 439.25C72.2578 438.875 72.2578 438.523 72.2344 438.195C72.2344 437.844 72.2344 437.539 72.2344 437.281C72.2344 437.023 72.293 436.695 72.4102 436.297C72.5273 435.898 72.6094 435.547 72.6562 435.242C72.7734 434.445 72.8438 433.66 72.8672 432.887C72.9141 432.09 72.9609 431.293 73.0078 430.496C73.1719 430.402 73.2891 430.285 73.3594 430.145C73.4297 429.98 73.4648 429.816 73.4648 429.652C73.4648 429.395 73.4297 429.148 73.3594 428.914C73.3125 428.68 73.2891 428.434 73.2891 428.176C73.2891 428.059 73.3008 427.941 73.3242 427.824C73.3477 427.684 73.4062 427.566 73.5 427.473C73.4766 427.309 73.4531 427.145 73.4297 426.98C73.4297 426.816 73.3711 426.676 73.2539 426.559C73.3711 426.254 73.4297 425.949 73.4297 425.645C73.4297 425.363 73.3945 425.082 73.3242 424.801C73.2773 424.52 73.2539 424.227 73.2539 423.922C73.2539 423.336 73.5 422.914 73.9922 422.656H74.4844C74.7188 422.656 74.9531 422.645 75.1875 422.621C75.4219 422.598 75.668 422.527 75.9258 422.41C76.2305 422.738 76.5469 423.102 76.875 423.5C77.2031 423.875 77.4844 424.285 77.7188 424.73C77.9531 425.176 78.1289 425.633 78.2461 426.102C78.3633 426.57 78.375 427.062 78.2812 427.578C78.375 427.766 78.4336 427.953 78.457 428.141C78.4805 428.328 78.5508 428.516 78.668 428.703ZM71.4961 447.863C71.4023 447.84 71.332 447.805 71.2852 447.758C71.2617 447.688 71.1914 447.641 71.0742 447.617V448.004H71.3555L71.4961 447.863ZM86.3672 459.184C86.25 459.371 86.1094 459.547 85.9453 459.711C85.7812 459.852 85.6289 460.004 85.4883 460.168C85.3242 460.238 85.1367 460.273 84.9258 460.273C84.7383 460.273 84.5508 460.273 84.3633 460.273C84.1992 460.25 84.0352 460.25 83.8711 460.273C83.7305 460.273 83.6133 460.32 83.5195 460.414C83.332 460.367 83.1914 460.285 83.0977 460.168C83.0039 460.027 82.8398 459.945 82.6055 459.922C82.5117 459.898 82.418 459.898 82.3242 459.922C81.9727 459.523 81.6445 459.102 81.3398 458.656C81.0586 458.211 80.7891 457.789 80.5312 457.391C80.5078 456.523 80.4375 455.645 80.3203 454.754C80.2969 454.543 80.2617 454.332 80.2148 454.121C80.168 453.91 80.1328 453.711 80.1094 453.523C80.1094 453.289 80.1211 453.066 80.1445 452.855C80.1914 452.621 80.2266 452.41 80.25 452.223C80.3438 451.543 80.4492 450.875 80.5664 450.219C80.6836 449.562 80.7891 448.895 80.8828 448.215C80.9766 447.605 81.0234 446.973 81.0234 446.316C81.0234 445.637 80.918 445.004 80.707 444.418L80.6719 444.242C80.7188 444.055 80.7656 443.902 80.8125 443.785C80.8828 443.645 80.9297 443.492 80.9531 443.328C81 443.07 80.9414 442.883 80.7773 442.766C80.8477 442.578 80.9648 442.461 81.1289 442.414C81.293 442.344 81.3867 442.203 81.4102 441.992C81.4336 441.898 81.4336 441.805 81.4102 441.711C81.5977 441.641 81.7852 441.582 81.9727 441.535C82.1836 441.465 82.3828 441.453 82.5703 441.5C82.875 441.547 83.1445 441.652 83.3789 441.816C83.6133 441.957 83.8359 442.121 84.0469 442.309C84.4219 443.434 84.5742 444.629 84.5039 445.895C84.4336 447.137 84.3164 448.391 84.1523 449.656C83.9883 450.922 83.8828 452.164 83.8359 453.383C83.7891 454.578 83.9766 455.691 84.3984 456.723L84.4688 456.758C84.5859 456.781 84.6797 456.746 84.75 456.652C84.8203 456.535 84.9141 456.488 85.0312 456.512C85.125 456.559 85.1836 456.582 85.207 456.582C85.3008 457.051 85.4531 457.496 85.6641 457.918C85.875 458.34 86.1094 458.762 86.3672 459.184ZM116.074 439.215C116.074 439.426 116.027 439.625 115.934 439.812L115.688 440.34C115.617 440.504 115.547 440.68 115.477 440.867C115.406 441.055 115.383 441.277 115.406 441.535C115.078 441.91 114.75 442.273 114.422 442.625C114.094 442.977 113.801 443.375 113.543 443.82C113.285 443.797 113.086 443.855 112.945 443.996C112.828 444.137 112.734 444.324 112.664 444.559C112.172 444.723 111.738 444.98 111.363 445.332C110.988 445.66 110.66 446.023 110.379 446.422C109.137 446.938 107.977 447.57 106.898 448.32C105.82 449.07 104.836 449.949 103.945 450.957C104.367 450.957 104.777 451.004 105.176 451.098C105.598 451.191 106.008 451.297 106.406 451.414C106.828 451.508 107.238 451.602 107.637 451.695C108.035 451.766 108.445 451.777 108.867 451.73C109.172 452.012 109.512 452.246 109.887 452.434C110.285 452.621 110.672 452.797 111.047 452.961C111.445 453.125 111.82 453.312 112.172 453.523C112.547 453.734 112.875 453.992 113.156 454.297C113.156 454.344 113.145 454.391 113.121 454.438C113.121 454.461 113.121 454.496 113.121 454.543C113.121 454.73 113.168 454.918 113.262 455.105C113.355 455.27 113.402 455.445 113.402 455.633C113.285 455.82 113.18 456.02 113.086 456.23C112.992 456.441 112.875 456.629 112.734 456.793C112.617 456.957 112.477 457.098 112.312 457.215C112.148 457.332 111.926 457.402 111.645 457.426C111.527 457.824 111.34 458.141 111.082 458.375C110.824 458.586 110.531 458.785 110.203 458.973C109.898 459.137 109.594 459.312 109.289 459.5C108.984 459.664 108.727 459.887 108.516 460.168C107.812 460.332 107.121 460.566 106.441 460.871C105.785 461.152 105.199 461.562 104.684 462.102C104.332 462.148 103.969 462.207 103.594 462.277C103.242 462.324 102.891 462.348 102.539 462.348C102.047 462.348 101.648 462.254 101.344 462.066C101.039 461.855 100.863 461.48 100.816 460.941C100.887 460.777 100.992 460.637 101.133 460.52L101.59 460.168C101.754 460.051 101.895 459.934 102.012 459.816C102.152 459.676 102.258 459.512 102.328 459.324C102.375 459.324 102.434 459.336 102.504 459.359C102.574 459.359 102.645 459.359 102.715 459.359C102.996 459.359 103.219 459.301 103.383 459.184C103.547 459.066 103.699 458.949 103.84 458.832C104.004 458.715 104.18 458.609 104.367 458.516C104.555 458.422 104.801 458.387 105.105 458.41C105.27 458.105 105.516 457.883 105.844 457.742C106.172 457.578 106.512 457.438 106.863 457.32C107.215 457.18 107.543 457.027 107.848 456.863C108.176 456.676 108.398 456.406 108.516 456.055C108.398 455.867 108.246 455.727 108.059 455.633C107.871 455.516 107.66 455.422 107.426 455.352L106.758 455.141C106.547 455.07 106.359 454.988 106.195 454.895C105.938 454.965 105.691 455 105.457 455C104.965 455 104.484 454.953 104.016 454.859C103.547 454.766 103.066 454.719 102.574 454.719C102.129 454.719 101.742 454.777 101.414 454.895C101.297 454.871 101.168 454.836 101.027 454.789C100.91 454.742 100.793 454.695 100.676 454.648C100.137 454.859 99.5742 454.965 98.9883 454.965H96.7031C96.5156 454.965 96.3281 454.988 96.1406 455.035C95.8828 455.504 95.7539 456.008 95.7539 456.547C95.7539 456.945 95.8125 457.332 95.9297 457.707C96.0469 458.059 96.1641 458.434 96.2812 458.832C96.75 459.254 97.1836 459.758 97.582 460.344C97.9805 460.906 98.1797 461.527 98.1797 462.207C98.1797 462.371 98.168 462.5 98.1445 462.594C97.9102 462.43 97.6055 462.348 97.2305 462.348C96.9023 462.348 96.5859 462.395 96.2812 462.488C96 462.582 95.6953 462.652 95.3672 462.699C95.1094 462.582 94.8398 462.465 94.5586 462.348C94.2773 462.207 94.0078 462.043 93.75 461.855C93.5625 461.457 93.375 461.082 93.1875 460.73C93 460.355 92.7656 460.004 92.4844 459.676V459.535C92.4844 458.715 92.4141 457.906 92.2734 457.109C92.1562 456.312 92.0977 455.504 92.0977 454.684C92.0977 454.309 92.1094 453.934 92.1328 453.559C92.1797 453.16 92.2969 452.797 92.4844 452.469C92.4141 451.906 92.3789 451.32 92.3789 450.711C92.3789 449.492 92.4492 448.273 92.5898 447.055C92.7305 445.836 92.8008 444.594 92.8008 443.328C92.8008 443.07 92.7891 442.812 92.7656 442.555C92.7656 442.297 92.7539 442.039 92.7305 441.781H92.5898C92.2852 441.781 91.9922 441.828 91.7109 441.922C91.4297 441.992 91.1484 442.074 90.8672 442.168C90.5859 442.262 90.293 442.355 89.9883 442.449C89.6836 442.52 89.3789 442.555 89.0742 442.555C88.8867 442.648 88.7344 442.742 88.6172 442.836C88.5 442.93 88.3828 443.012 88.2656 443.082C88.1484 443.152 88.0195 443.211 87.8789 443.258C87.7148 443.305 87.5273 443.316 87.3164 443.293C87.0586 443.457 86.8594 443.586 86.7188 443.68C86.5547 443.75 86.332 443.832 86.0508 443.926C85.9102 443.973 85.793 444.043 85.6992 444.137L85.418 444.383C85.3242 444.453 85.2188 444.523 85.1016 444.594C84.9844 444.664 84.832 444.699 84.6445 444.699C84.4805 444.699 84.3633 444.688 84.293 444.664C84.1523 444.547 84.0352 444.406 83.9414 444.242C83.8242 444.078 83.7188 443.926 83.625 443.785C83.5078 443.621 83.3906 443.48 83.2734 443.363C83.1328 443.223 82.9688 443.117 82.7812 443.047C82.875 442.93 82.9219 442.836 82.9219 442.766C82.8984 442.672 82.8867 442.566 82.8867 442.449C82.8867 442.379 82.8984 442.332 82.9219 442.309C83.0391 441.887 83.25 441.559 83.5547 441.324C83.8594 441.066 84.1992 440.867 84.5742 440.727C84.9492 440.562 85.3359 440.422 85.7344 440.305C86.1094 440.188 86.4609 440.047 86.7891 439.883C87.7031 439.906 88.5352 439.824 89.2852 439.637C90.0352 439.426 90.8086 439.133 91.6055 438.758C91.7461 438.828 91.8867 438.863 92.0273 438.863C92.1445 438.863 92.2617 438.852 92.3789 438.828L92.7305 438.758C93.0117 438.523 93.3164 438.371 93.6445 438.301C93.9727 438.23 94.3008 438.172 94.6289 438.125C94.957 438.078 95.2734 438.031 95.5781 437.984C95.8828 437.914 96.1523 437.785 96.3867 437.598H96.5273C97.0898 437.598 97.6523 437.504 98.2148 437.316C98.8008 437.129 99.3633 437.059 99.9023 437.105C100.371 436.848 100.805 436.684 101.203 436.613C101.602 436.543 102.059 436.508 102.574 436.508C102.691 436.508 102.832 436.461 102.996 436.367C103.16 436.25 103.359 436.191 103.594 436.191C103.641 436.191 103.676 436.203 103.699 436.227C103.746 436.227 103.793 436.227 103.84 436.227C104.051 436.227 104.191 436.156 104.262 436.016C104.355 435.875 104.578 435.805 104.93 435.805C105.094 435.805 105.246 435.816 105.387 435.84C105.527 435.84 105.668 435.84 105.809 435.84C105.973 435.84 106.078 435.781 106.125 435.664C106.172 435.523 106.277 435.465 106.441 435.488C106.512 435.582 106.629 435.629 106.793 435.629C106.957 435.605 107.086 435.594 107.18 435.594C107.344 435.594 107.438 435.641 107.461 435.734C107.836 435.5 108.246 435.348 108.691 435.277C109.16 435.207 109.605 435.172 110.027 435.172C110.191 435.172 110.355 435.184 110.52 435.207C110.684 435.207 110.859 435.219 111.047 435.242C111.258 435.102 111.504 435.031 111.785 435.031C111.949 435.031 112.207 435.102 112.559 435.242C112.934 435.383 113.32 435.547 113.719 435.734C114.117 435.922 114.48 436.121 114.809 436.332C115.137 436.543 115.336 436.719 115.406 436.859C115.453 436.906 115.477 437.012 115.477 437.176C115.5 437.34 115.535 437.48 115.582 437.598C115.699 437.879 115.805 438.148 115.898 438.406C116.016 438.641 116.074 438.91 116.074 439.215ZM112.172 439.602C112.172 439.555 112.16 439.508 112.137 439.461C112.137 439.391 112.137 439.332 112.137 439.285C112.02 439.145 111.855 439.039 111.645 438.969C111.457 438.898 111.246 438.84 111.012 438.793C110.801 438.746 110.578 438.711 110.344 438.688C110.133 438.641 109.945 438.582 109.781 438.512C109.289 438.676 108.75 438.758 108.164 438.758C107.625 438.758 107.145 438.676 106.723 438.512C106.512 438.723 106.242 438.887 105.914 439.004C105.586 439.121 105.234 439.215 104.859 439.285C104.508 439.332 104.145 439.367 103.77 439.391C103.418 439.391 103.102 439.391 102.82 439.391C102.727 439.391 102.562 439.461 102.328 439.602C102.094 439.742 101.883 439.812 101.695 439.812C101.555 439.812 101.426 439.754 101.309 439.637C101.098 439.801 100.805 439.941 100.43 440.059C100.055 440.176 99.668 440.281 99.2695 440.375C98.8711 440.445 98.4609 440.527 98.0391 440.621C97.6406 440.715 97.3008 440.809 97.0195 440.902C96.7383 441.512 96.5859 442.18 96.5625 442.906C96.5391 443.609 96.5273 444.301 96.5273 444.98C96.5273 445.379 96.5039 445.766 96.457 446.141C96.4102 446.516 96.3867 446.902 96.3867 447.301C96.3867 447.488 96.3984 447.688 96.4219 447.898C96.4453 448.086 96.5156 448.273 96.6328 448.461C96.4453 448.602 96.3164 448.789 96.2461 449.023C96.1992 449.234 96.1758 449.445 96.1758 449.656C96.1758 449.914 96.1992 450.148 96.2461 450.359C96.293 450.57 96.3398 450.77 96.3867 450.957C97.1367 450.887 97.8164 450.746 98.4258 450.535C99.0586 450.324 99.6445 450.066 100.184 449.762C100.746 449.457 101.285 449.105 101.801 448.707C102.316 448.309 102.855 447.887 103.418 447.441C103.652 447.395 103.84 447.324 103.98 447.23C104.145 447.137 104.344 447.09 104.578 447.09C104.672 446.762 104.848 446.539 105.105 446.422C105.363 446.281 105.562 446.082 105.703 445.824C105.984 445.754 106.219 445.66 106.406 445.543C106.617 445.402 106.816 445.273 107.004 445.156C107.191 445.016 107.391 444.887 107.602 444.77C107.836 444.652 108.094 444.582 108.375 444.559C108.773 444.09 109.184 443.621 109.605 443.152C110.051 442.684 110.566 442.309 111.152 442.027C111.246 441.793 111.352 441.594 111.469 441.43C111.586 441.242 111.691 441.066 111.785 440.902C111.902 440.715 111.996 440.527 112.066 440.34C112.137 440.129 112.172 439.883 112.172 439.602ZM138.785 441.641V441.781C138.621 441.828 138.539 441.945 138.539 442.133C138.281 442.25 138.012 442.344 137.73 442.414C137.449 442.461 137.18 442.543 136.922 442.66C136.664 442.637 136.395 442.625 136.113 442.625C135.855 442.602 135.598 442.59 135.34 442.59C134.637 442.59 133.934 442.613 133.23 442.66C132.527 442.707 131.824 442.707 131.121 442.66C130.793 442.848 130.43 443 130.031 443.117C129.656 443.211 129.293 443.258 128.941 443.258C128.66 443.258 128.414 443.223 128.203 443.152C127.641 443.434 127.02 443.668 126.34 443.855C125.684 444.043 125.016 444.23 124.336 444.418C123.656 444.582 123 444.781 122.367 445.016C121.758 445.227 121.219 445.531 120.75 445.93C120.703 446.258 120.668 446.586 120.645 446.914C120.621 447.219 120.609 447.523 120.609 447.828C120.609 448.156 120.621 448.461 120.645 448.742C120.691 449.023 120.773 449.305 120.891 449.586C121.008 449.633 121.137 449.668 121.277 449.691C121.441 449.715 121.582 449.727 121.699 449.727C121.816 449.727 121.934 449.715 122.051 449.691C122.168 449.645 122.25 449.562 122.297 449.445C122.648 449.398 123 449.387 123.352 449.41C123.703 449.41 124.055 449.41 124.406 449.41C124.758 449.41 125.098 449.398 125.426 449.375C125.777 449.352 126.117 449.293 126.445 449.199C126.82 449.105 127.184 449.047 127.535 449.023C127.91 449 128.273 448.977 128.625 448.953C128.977 448.93 129.34 448.895 129.715 448.848C130.09 448.777 130.477 448.648 130.875 448.461C131.18 448.578 131.484 448.637 131.789 448.637C132.117 448.637 132.434 448.66 132.738 448.707C132.902 448.824 133.031 448.953 133.125 449.094C133.242 449.234 133.301 449.398 133.301 449.586C133.301 449.914 133.184 450.242 132.949 450.57C132.715 450.898 132.527 451.203 132.387 451.484H132C131.438 451.484 130.887 451.566 130.348 451.73C129.832 451.871 129.305 452.047 128.766 452.258C128.25 452.445 127.723 452.621 127.184 452.785C126.668 452.926 126.129 452.996 125.566 452.996C125.473 452.996 125.414 453.055 125.391 453.172C125.391 453.266 125.367 453.336 125.32 453.383C125.203 453.359 125.027 453.348 124.793 453.348C124.254 453.348 123.738 453.406 123.246 453.523C122.754 453.641 122.25 453.699 121.734 453.699C121.594 453.699 121.453 453.699 121.312 453.699C121.172 453.676 121.031 453.652 120.891 453.629C120.773 453.816 120.621 453.945 120.434 454.016C120.246 454.062 120.07 454.156 119.906 454.297C119.836 454.508 119.789 454.766 119.766 455.07C119.766 455.375 119.754 455.691 119.73 456.02C119.73 456.324 119.707 456.617 119.66 456.898C119.613 457.18 119.52 457.402 119.379 457.566C119.402 457.684 119.496 457.73 119.66 457.707C119.824 457.66 119.906 457.73 119.906 457.918C119.906 458.129 119.883 458.352 119.836 458.586C119.789 458.82 119.766 459.055 119.766 459.289C119.766 459.734 119.812 460.227 119.906 460.766C120.023 461.281 120.188 461.762 120.398 462.207C120.633 462.652 120.938 463.027 121.312 463.332C121.688 463.613 122.156 463.754 122.719 463.754C123.094 463.754 123.445 463.684 123.773 463.543C124.102 463.402 124.371 463.168 124.582 462.84L124.758 462.805C124.852 462.805 124.934 462.816 125.004 462.84C125.098 462.863 125.191 462.875 125.285 462.875C125.426 462.875 125.602 462.793 125.812 462.629C126.047 462.441 126.293 462.23 126.551 461.996C126.832 461.762 127.113 461.539 127.395 461.328C127.676 461.094 127.945 460.93 128.203 460.836C128.367 460.508 128.52 460.18 128.66 459.852C128.824 459.523 129.059 459.266 129.363 459.078V458.059C129.598 457.801 129.844 457.566 130.102 457.355C130.383 457.145 130.594 456.875 130.734 456.547C130.852 456.594 130.957 456.629 131.051 456.652C131.168 456.676 131.285 456.688 131.402 456.688C131.52 456.688 131.637 456.676 131.754 456.652C131.895 456.629 132.023 456.594 132.141 456.547C132.328 456.805 132.469 457.098 132.562 457.426C132.68 457.73 132.82 458.023 132.984 458.305C132.773 458.727 132.527 459.23 132.246 459.816C131.965 460.402 131.66 460.988 131.332 461.574C131.004 462.16 130.652 462.723 130.277 463.262C129.926 463.777 129.574 464.176 129.223 464.457C129.152 464.527 129 464.609 128.766 464.703C128.508 464.891 128.273 465.066 128.062 465.23C127.852 465.418 127.652 465.629 127.465 465.863C126.785 466.074 126.129 466.355 125.496 466.707C124.887 467.059 124.277 467.398 123.668 467.727C123.387 467.656 123.082 467.621 122.754 467.621C122.473 467.621 122.191 467.633 121.91 467.656C121.629 467.703 121.324 467.727 120.996 467.727C120.902 467.609 120.762 467.527 120.574 467.48C120.41 467.457 120.352 467.34 120.398 467.129C119.602 467.082 118.957 466.859 118.465 466.461C117.973 466.086 117.551 465.617 117.199 465.055C116.871 464.492 116.602 463.883 116.391 463.227C116.18 462.57 115.957 461.938 115.723 461.328V461.223C115.723 461.105 115.77 461.035 115.863 461.012C115.957 460.988 116.004 460.918 116.004 460.801C116.004 460.754 115.992 460.719 115.969 460.695C115.898 460.438 115.84 460.215 115.793 460.027C115.746 459.84 115.723 459.617 115.723 459.359C115.723 458.984 115.746 458.621 115.793 458.27C115.84 457.895 115.863 457.52 115.863 457.145C115.863 456.77 115.816 456.441 115.723 456.16C115.816 456.043 115.898 455.891 115.969 455.703C116.016 455.492 116.051 455.281 116.074 455.07C116.098 454.859 116.109 454.648 116.109 454.438C116.133 454.227 116.168 454.039 116.215 453.875C116.121 453.617 116.039 453.395 115.969 453.207C115.898 452.996 115.863 452.75 115.863 452.469V452.223C116.098 451.824 116.297 451.414 116.461 450.992C116.625 450.57 116.801 450.137 116.988 449.691V449.586C116.988 448.906 116.965 448.227 116.918 447.547C116.871 446.867 116.848 446.188 116.848 445.508V444.84C116.848 444.605 116.859 444.383 116.883 444.172C117.07 444.078 117.211 443.949 117.305 443.785C117.398 443.621 117.539 443.492 117.727 443.398H118.887L119.098 443.047C119.168 442.93 119.215 442.801 119.238 442.66C119.496 442.59 119.742 442.496 119.977 442.379C120.234 442.238 120.469 442.098 120.68 441.957C121.008 441.77 121.301 441.605 121.559 441.465C121.84 441.301 122.109 441.172 122.367 441.078C122.648 440.961 122.941 440.867 123.246 440.797C123.551 440.727 123.902 440.668 124.301 440.621C124.488 440.621 124.605 440.586 124.652 440.516C124.723 440.445 124.816 440.363 124.934 440.27C125.215 440.316 125.496 440.363 125.777 440.41C126.059 440.434 126.34 440.445 126.621 440.445C127.184 440.445 127.711 440.34 128.203 440.129C128.906 440.129 129.598 440.117 130.277 440.094C130.98 440.07 131.684 440.059 132.387 440.059C132.996 440.059 133.605 440.082 134.215 440.129C134.824 440.176 135.422 440.258 136.008 440.375C136.219 440.305 136.453 440.27 136.711 440.27C136.992 440.27 137.273 440.305 137.555 440.375C137.859 440.422 138.152 440.422 138.434 440.375C138.457 440.633 138.516 440.855 138.609 441.043C138.727 441.207 138.785 441.406 138.785 441.641ZM155.695 459.57C155.695 459.969 155.59 460.32 155.379 460.625C155.191 460.906 155.121 461.258 155.168 461.68C154.84 461.867 154.57 462.113 154.359 462.418C154.148 462.723 153.949 463.039 153.762 463.367C152.215 464.375 150.551 465.184 148.77 465.793C147.012 466.426 145.195 466.742 143.32 466.742C143.203 466.742 143.098 466.684 143.004 466.566C142.91 466.473 142.816 466.367 142.723 466.25C142.629 466.133 142.523 466.016 142.406 465.898C142.312 465.805 142.195 465.758 142.055 465.758C141.891 465.758 141.762 465.793 141.668 465.863C141.668 465.816 141.668 465.77 141.668 465.723C141.691 465.699 141.703 465.664 141.703 465.617C141.703 465.336 141.668 465.043 141.598 464.738C141.527 464.457 141.492 464.176 141.492 463.895C141.492 463.566 141.551 463.297 141.668 463.086H142.09C142.324 463.086 142.547 463.074 142.758 463.051C142.992 463.004 143.238 462.98 143.496 462.98C143.754 462.98 143.988 463.051 144.199 463.191C145.488 463.145 146.707 462.91 147.855 462.488C149.027 462.043 150.211 461.609 151.406 461.188C151.594 460.93 151.699 460.648 151.723 460.344C151.77 460.016 151.863 459.711 152.004 459.43C151.395 458.914 150.773 458.516 150.141 458.234C149.531 457.93 148.816 457.824 147.996 457.918C147.504 457.613 146.977 457.438 146.414 457.391C145.875 457.344 145.324 457.273 144.762 457.18C144.621 457.156 144.469 457.133 144.305 457.109C144.164 457.062 144.012 457.039 143.848 457.039C143.73 457.039 143.613 457.074 143.496 457.145C143.402 457.191 143.379 457.273 143.426 457.391C143.309 457.203 143.145 457.098 142.934 457.074C142.746 457.027 142.582 456.934 142.441 456.793C141.691 456.746 141.035 456.617 140.473 456.406C139.91 456.172 139.289 455.914 138.609 455.633C138.422 455.562 138.234 455.516 138.047 455.492C137.883 455.445 137.719 455.375 137.555 455.281C137.133 455.07 136.793 454.789 136.535 454.438C136.277 454.086 136.078 453.699 135.938 453.277C135.773 452.832 135.656 452.375 135.586 451.906C135.516 451.438 135.445 451.004 135.375 450.605C135.586 450.23 135.785 449.844 135.973 449.445C136.137 449.047 136.277 448.625 136.395 448.18C136.535 448.109 136.676 448.051 136.816 448.004C136.957 447.957 137.109 447.898 137.273 447.828C137.25 447.781 137.238 447.723 137.238 447.652C137.238 447.535 137.273 447.418 137.344 447.301C137.438 447.184 137.461 447.066 137.414 446.949C137.93 446.48 138.422 446 138.891 445.508C139.383 444.992 139.805 444.43 140.156 443.82C140.508 443.703 140.789 443.527 141 443.293C141.211 443.059 141.422 442.824 141.633 442.59C141.844 442.332 142.078 442.109 142.336 441.922C142.594 441.711 142.922 441.582 143.32 441.535C143.414 441.371 143.543 441.242 143.707 441.148C143.871 441.031 144.035 440.926 144.199 440.832C144.363 440.738 144.516 440.633 144.656 440.516C144.797 440.398 144.902 440.234 144.973 440.023C145.348 440.023 145.688 439.953 145.992 439.812C146.32 439.672 146.637 439.52 146.941 439.355C147.246 439.191 147.551 439.039 147.855 438.898C148.184 438.758 148.535 438.688 148.91 438.688C149.004 438.688 149.098 438.699 149.191 438.723C149.285 438.723 149.391 438.734 149.508 438.758C149.672 438.922 149.777 439.121 149.824 439.355C149.895 439.566 149.941 439.801 149.965 440.059C149.988 440.316 150 440.574 150 440.832C150.023 441.09 150.07 441.324 150.141 441.535C149.93 441.934 149.695 442.332 149.438 442.73C149.203 443.129 148.887 443.434 148.488 443.645H148.418C148.254 443.668 148.102 443.633 147.961 443.539C147.82 443.445 147.656 443.398 147.469 443.398C147.352 443.398 147.258 443.434 147.188 443.504L147.012 443.68C146.965 443.727 146.895 443.773 146.801 443.82C146.73 443.867 146.625 443.867 146.484 443.82C146.156 443.938 146.027 444.137 146.098 444.418C145.652 444.465 145.277 444.605 144.973 444.84C144.668 445.051 144.387 445.297 144.129 445.578C143.871 445.836 143.613 446.082 143.355 446.316C143.098 446.527 142.793 446.645 142.441 446.668C142.043 447.371 141.551 447.992 140.965 448.531C140.402 449.07 139.934 449.68 139.559 450.359C139.629 450.547 139.676 450.746 139.699 450.957C139.723 451.168 139.758 451.391 139.805 451.625C140.016 451.906 140.262 452.152 140.543 452.363C140.848 452.574 141.141 452.785 141.422 452.996H141.527C141.996 452.996 142.43 453.09 142.828 453.277C143.227 453.441 143.648 453.523 144.094 453.523C144.328 453.523 144.527 453.477 144.691 453.383C145.301 453.523 145.898 453.641 146.484 453.734C147.094 453.828 147.703 453.898 148.312 453.945C148.617 453.992 148.922 454.016 149.227 454.016C149.555 454.016 149.859 454.051 150.141 454.121C150.398 454.191 150.656 454.285 150.914 454.402C151.172 454.496 151.43 454.602 151.688 454.719C152.227 454.953 152.73 455.211 153.199 455.492C153.691 455.773 154.125 456.113 154.5 456.512C154.875 456.887 155.168 457.332 155.379 457.848C155.59 458.34 155.695 458.914 155.695 459.57Z" fill="black"/>
</g>
<defs>
<filter id="filter0_f_2_2" x="-686" y="-537" width="1597" height="1574" filterUnits="userSpaceOnUse" color-interpolation-filters="sRGB">
<feFlood flood-opacity="0" result="BackgroundImageFix"/>
<feBlend mode="normal" in="SourceGraphic" in2="BackgroundImageFix" result="shape"/>
<feGaussianBlur stdDeviation="150" result="effect1_foregroundBlur_2_2"/>
</filter>
<filter id="filter1_f_2_2" x="614" y="-528" width="1597" height="1574" filterUnits="userSpaceOnUse" color-interpolation-filters="sRGB">
<feFlood flood-opacity="0" result="BackgroundImageFix"/>
<feBlend mode="normal" in="SourceGraphic" in2="BackgroundImageFix" result="shape"/>
<feGaussianBlur stdDeviation="150" result="effect1_foregroundBlur_2_2"/>
</filter>
<clipPath id="clip0_2_2">
<rect width="1500" height="500" fill="white"/>
</clipPath>
</defs>
</svg>
